#!OML:ASF F:\VICON\USERDATA\INSTALL\Justin_Nancy\Justin_Nancy.ASF
:FULLY-SPECIFIED
:DEGREES
99
root 0.0302032 16.4084 -5.96959 20.7304 -5.55668 -1.3934
lowerback 18.0143 2.93261 3.56951
upperback 1.96061 4.62392 1.0607
thorax -7.76833 2.11944 -1.99337
lowerneck -21.8015 -5.7918 -8.79561
upperneck -2.48404 -5.77801 6.53483
head 3.0455 -2.51182 2.92546
rclavicle -4.05521e-014 7.95139e-016
rhumerus 4.24909 25.0241 -72.3709
rradius 119.364
rwrist -18.2686
rhand -20.9193 31.3586
rfingers 7.12502
rthumb 5.45229 1.44879
lclavicle -4.05521e-014 7.95139e-016
lhumerus -68.3964 -2.73733 63.6604
lradius 77.5661
lwrist 23.2543
lhand -16.494 9.32092
lfingers 7.12502
lthumb 9.72356 39.0765
rfemur 10.0264 8.38339 22.9783
rtibia 18.4186
rfoot 6.12562 1.09832
rtoes -26.295
lfemur -76.1025 2.52174 -17.5349
ltibia 78.9696
lfoot -3.14635 -6.19996
ltoes -7.53245
100
root 0.00933415 16.4721 -5.36538 20.014 -5.2474 -1.26388
lowerback 18.1297 3.00293 3.18372
upperback 2.01215 4.65506 1.18859
thorax -7.81618 2.14772 -1.65329
lowerneck -21.9438 -5.9543 -9.22771
upperneck -1.82671 -5.90758 6.83662
head 3.30225 -2.55791 3.06545
rclavicle -4.37326e-015 9.54166e-015
rhumerus 1.6009 25.6077 -72.958
rradius 120.053
rwrist -18.209
rhand -17.6042 34.3785
rfingers 7.12502
rthumb 8.65233 4.57583
lclavicle -4.37326e-015 9.54166e-015
lhumerus -68.8959 -2.16242 64.6481
lradius 78.0764
lwrist 22.7179
lhand -16.8071 8.31693
lfingers 7.12502
lthumb 9.42144 38.0863
rfemur 12.709 9.94813 23.376
rtibia 16.8616
rfoot 12.0825 3.68857
rtoes -14.7274
lfemur -74.3901 2.64152 -17.9133
ltibia 75.5039
lfoot -3.74549 -7.32834
ltoes -6.50092
101
root -0.0164868 16.5149 -4.77991 19.3848 -4.09647 -1.39487
lowerback 18.2644 2.76209 3.4127
upperback 1.96625 4.41449 1.42113
thorax -7.95283 2.02515 -1.4852
lowerneck -21.5997 -6.01114 -9.47746
upperneck -1.51591 -5.97773 7.08584
head 3.37368 -2.58602 3.17742
rclavicle 6.75868e-015 2.8625e-014
rhumerus -1.91686 28.1718 -73.8872
rradius 119.818
rwrist -11.291
rhand -21.2767 32.8704
rfingers 7.12502
rthumb 5.1072 2.95195
lclavicle 6.75868e-015 2.8625e-014
lhumerus -69.2033 -1.65755 65.6512
lradius 78.7238
lwrist 22.18
lhand -16.7996 7.59665
lfingers 7.12502
lthumb 9.42867 37.3657
rfemur 14.5723 10.9098 24.6204
rtibia 16.7061
rfoot 10.792 6.74659
rtoes -18.605
lfemur -72.876 2.49866 -17.9521
ltibia 72.4288
lfoot -2.78585 -8.17249
ltoes -8.22949
102
root -0.0410012 16.5227 -4.2078 18.7967 -2.64509 -1.55806
lowerback 18.1543 2.40955 3.94696
upperback 2.03982 4.06463 1.57091
thorax -7.80171 1.84854 -1.53282
lowerneck -21.1531 -6.14237 -9.57515
upperneck -1.53083 -6.19317 7.47689
head 3.34369 -2.68043 3.30062
rclavicle -6.04305e-014 -1.03368e-014
rhumerus -5.09496 28.4008 -75.1049
rradius 119.127
rwrist -13.7754
rhand -20.0683 33.088
rfingers 7.12502
rthumb 6.27389 3.20093
lclavicle -6.04305e-014 -1.03368e-014
lhumerus -69.1278 -1.3158 66.7127
lradius 79.7413
lwrist 21.8803
lhand -16.836 7.14272
lfingers 7.12502
lthumb 9.39355 36.9134
rfemur 15.5223 11.2799 26.0983
rtibia 18.4576
rfoot 9.06391 8.13954
rtoes -17.3808
lfemur -71.4723 2.34212 -18.1213
ltibia 70.0615
lfoot -3.13425 -8.96089
ltoes -12.9438
103
root -0.0613255 16.5055 -3.64609 18.2045 -1.68555 -1.86205
lowerback 18.1077 2.17938 4.44587
upperback 2.14718 3.86071 1.64401
thorax -7.64148 1.74262 -1.68108
lowerneck -20.9382 -6.28276 -9.67268
upperneck -1.36678 -6.41131 7.95108
head 3.40703 -2.76814 3.44427
rclavicle 5.24792e-014 2.62396e-014
rhumerus -8.5374 28.8048 -76.7903
rradius 118.2
rwrist -15.1779
rhand -19.2049 31.3762
rfingers 7.12502
rthumb 7.10735 1.51559
lclavicle 5.24792e-014 2.62396e-014
lhumerus -68.6458 -0.949604 67.8054
lradius 80.5406
lwrist 21.9213
lhand -17.0081 6.96559
lfingers 7.12502
lthumb 9.22752 36.7437
rfemur 15.5877 11.4699 27.4261
rtibia 21.9122
rfoot 8.70961 9.00828
rtoes -13.487
lfemur -69.923 2.71097 -18.4292
ltibia 68.3839
lfoot -2.90984 -10.2303
ltoes -12.1912
104
root -0.0822208 16.4866 -3.09859 17.8214 -0.8694 -2.08193
lowerback 18.0671 1.91438 4.9069
upperback 2.22343 3.58889 1.53048
thorax -7.5149 1.602 -1.99437
lowerneck -21.3092 -6.37193 -9.50636
upperneck -0.892892 -6.5804 8.33839
head 3.63533 -2.82222 3.51179
rclavicle -2.34566e-014 -3.18055e-015
rhumerus -11.9747 29.1994 -79.0227
rradius 116.782
rwrist -15.9535
rhand -18.9354 29.4845
rfingers 7.12502
rthumb 7.36752 -0.367187
lclavicle -2.34566e-014 -3.18055e-015
lhumerus -67.6391 -0.504662 68.7876
lradius 81.0941
lwrist 22.1575
lhand -17.6503 7.3747
lfingers 7.12502
lthumb 8.60786 37.1792
rfemur 14.4898 11.0354 28.3926
rtibia 26.9925
rfoot 7.57086 9.13778
rtoes -15.1978
lfemur -68.425 3.11435 -18.7799
ltibia 67.0101
lfoot -3.15003 -10.3746
ltoes -13.0604
105
root -0.100388 16.4768 -2.53853 17.5118 -0.0541009 -1.91561
lowerback 17.9097 1.62803 4.98544
upperback 2.24818 3.20397 1.33913
thorax -7.4106 1.41673 -2.14727
lowerneck -21.2526 -6.37748 -9.17681
upperneck -0.994487 -6.68207 8.52931
head 3.60468 -2.86301 3.51131
rclavicle 6.36111e-015 -1.66979e-014
rhumerus -15.461 29.2468 -81.4278
rradius 114.833
rwrist -16.3492
rhand -18.4258 28.7403
rfingers 7.12502
rthumb 7.85937 -1.09359
lclavicle 6.36111e-015 -1.66979e-014
lhumerus -66.6118 -0.183287 69.9842
lradius 81.8561
lwrist 22.6509
lhand -18.5654 8.67683
lfingers 7.12502
lthumb 7.72461 38.5157
rfemur 12.9347 9.84307 28.7427
rtibia 32.873
rfoot 6.05036 8.60736
rtoes -19.7115
lfemur -66.7115 3.30144 -19.4831
ltibia 65.7858
lfoot -3.54039 -10.1315
ltoes -13.8538
106
root -0.127066 16.5277 -1.95976 17.3041 0.682102 -1.36042
lowerback 17.5384 1.39836 4.43469
upperback 2.32926 2.76271 1.19275
thorax -7.16846 1.22732 -1.87673
lowerneck -20.9007 -6.38601 -9.11435
upperneck -1.26537 -6.74488 8.81453
head 3.48877 -2.88828 3.59299
rclavicle -2.06736e-014 3.97569e-015
rhumerus -18.7882 28.9028 -83.6202
rradius 112.551
rwrist -16.0357
rhand -18.1087 28.1197
rfingers 7.12502
rthumb 8.1654 -1.70248
lclavicle -2.06736e-014 3.97569e-015
lhumerus -65.3649 0.216218 71.5047
lradius 82.7348
lwrist 23.2616
lhand -19.6327 9.69846
lfingers 7.12502
lthumb 6.69439 39.5726
rfemur 10.437 8.84395 28.525
rtibia 39.2876
rfoot 6.11576 6.71385
rtoes -12.6104
lfemur -64.3357 3.35012 -20.4288
ltibia 64.3263
lfoot -3.77714 -9.75652
ltoes -12.8666
107
root -0.167062 16.5403 -1.41421 17.6447 0.943135 -1.04763
lowerback 16.6187 1.41134 3.71584
upperback 2.40372 2.5911 1.08546
thorax -6.62285 1.17767 -1.51409
lowerneck -20.7408 -6.42135 -9.0691
upperneck -1.4871 -6.82366 9.11479
head 3.41836 -2.91679 3.67698
rclavicle -5.1684e-015 -1.59028e-014
rhumerus -21.7211 28.1785 -85.5638
rradius 109.924
rwrist -14.9061
rhand -19.0389 26.8984
rfingers 7.12502
rthumb 7.26759 -2.95684
lclavicle -5.1684e-015 -1.59028e-014
lhumerus -63.6179 0.488183 73.1767
lradius 83.5004
lwrist 23.9149
lhand -20.5244 9.33005
lfingers 7.12502
lthumb 5.83358 39.2297
rfemur 7.329 7.95071 28.2086
rtibia 45.8044
rfoot 5.10527 5.11491
rtoes -9.79184
lfemur -62.6209 3.82773 -21.0792
ltibia 63.168
lfoot -3.88818 -9.21613
ltoes -9.90869
108
root -0.200897 16.5541 -0.851986 17.6491 1.48534 -0.304845
lowerback 16.0597 1.25254 2.90627
upperback 2.48487 2.19877 0.823623
thorax -6.26963 1.01267 -1.23354
lowerneck -20.3422 -6.41245 -8.82583
upperneck -1.85815 -6.89205 9.26159
head 3.25347 -2.95626 3.68786
rclavicle 1.86858e-014 6.36111e-015
rhumerus -24.7733 26.9175 -87.606
rradius 107.278
rwrist -13.4572
rhand -19.3544 27.3293
rfingers 7.12502
rthumb 6.96303 -2.53619
lclavicle 1.86858e-014 6.36111e-015
lhumerus -61.7967 0.565938 74.7492
lradius 84.1739
lwrist 24.4652
lhand -20.6334 10.1105
lfingers 7.12502
lthumb 5.72829 40.0131
rfemur 4.19513 6.38147 27.4855
rtibia 52.3539
rfoot 3.95107 3.57569
rtoes -9.04494
lfemur -60.2639 3.97709 -22.0994
ltibia 62.2637
lfoot -5.3447 -9.1974
ltoes -8.53762
109
root -0.222696 16.5596 -0.285475 17.3462 1.61925 0.0471585
lowerback 15.9447 1.2293 2.44566
upperback 2.57559 2.06749 0.57735
thorax -6.1221 0.960076 -1.20258
lowerneck -19.9125 -6.43827 -8.59895
upperneck -2.28615 -7.0004 9.45916
head 3.07335 -3.01558 3.7147
rclavicle 9.54166e-015 5.56597e-015
rhumerus -27.6809 25.0954 -89.4723
rradius 104.56
rwrist -12.1657
rhand -19.5224 28.0722
rfingers 7.12502
rthumb 6.80085 -1.79858
lclavicle 9.54166e-015 5.56597e-015
lhumerus -59.895 0.462172 76.3275
lradius 84.6954
lwrist 24.7759
lhand -19.9946 10.1083
lfingers 7.12502
lthumb 6.34505 39.9933
rfemur 1.61838 5.2827 26.9691
rtibia 58.5217
rfoot 3.11286 2.35311
rtoes -7.9578
lfemur -57.4562 4.47975 -22.6778
ltibia 61.96
lfoot -8.06731 -9.49473
ltoes -9.84018
110
root -0.243623 16.5594 0.271426 16.9622 1.4191 0.270228
lowerback 15.9914 1.3072 1.88788
upperback 2.68785 2.06282 0.404974
thorax -6.0414 0.969602 -1.06852
lowerneck -19.7319 -6.43762 -8.47225
upperneck -2.43227 -7.04425 9.65737
head 3.01321 -3.0348 3.7568
rclavicle 9.54166e-015 -1.59028e-014
rhumerus -29.8291 23.4383 -90.6871
rradius 101.211
rwrist -11.3425
rhand -19.5585 29.1057
rfingers 7.12502
rthumb 6.76603 -0.766172
lclavicle 9.54166e-015 -1.59028e-014
lhumerus -57.7931 0.246779 78.1236
lradius 85.199
lwrist 24.8019
lhand -19.9235 9.23052
lfingers 7.12502
lthumb 6.41365 39.1134
rfemur -0.972652 4.57818 26.464
rtibia 64.394
rfoot 2.00599 1.25681
rtoes -8.18581
lfemur -54.4357 5.21164 -23.0795
ltibia 62.0461
lfoot -10.9808 -9.40042
ltoes -10.1816
111
root -0.260296 16.5382 0.831237 16.682 2.98132 1.26768
lowerback 15.7633 0.70819 1.35979
upperback 2.81517 1.17596 0.266788
thorax -5.81466 0.551685 -0.72785
lowerneck -19.6134 -6.40545 -8.43526
upperneck -2.43926 -7.02792 9.8355
head 3.00119 -3.02212 3.81008
rclavicle 1.49089e-014 -8.34896e-015
rhumerus -32.2176 21.0594 -91.6911
rradius 98.3998
rwrist -10.4114
rhand -19.2639 29.7701
rfingers 7.12502
rthumb 7.05037 -0.092523
lclavicle 1.49089e-014 -8.34896e-015
lhumerus -55.3692 0.00336138 80.184
lradius 85.7671
lwrist 24.3969
lhand -21.5743 11.8583
lfingers 7.12502
lthumb 4.8198 41.7834
rfemur -3.67385 2.03194 25.6812
rtibia 70.0036
rfoot 0.454013 0.384291
rtoes -9.11326
lfemur -51.492 4.11079 -23.7134
ltibia 62.176
lfoot -13.7909 -8.45848
ltoes -10.221
112
root -0.279176 16.5082 1.37674 16.4322 4.40075 2.20974
lowerback 15.7904 0.147289 0.770163
upperback 2.85109 0.33517 0.11648
thorax -5.81081 0.153134 -0.381906
lowerneck -19.4103 -6.34208 -8.33094
upperneck -2.41665 -6.99382 10.0217
head 2.98286 -3.00279 3.85784
rclavicle -1.78906e-015 6.36111e-015
rhumerus -34.4053 18.6383 -92.4657
rradius 95.5207
rwrist -9.33446
rhand -19.6313 28.7765
rfingers 7.12502
rthumb 6.69578 -1.09767
lclavicle -1.78906e-015 6.36111e-015
lhumerus -52.7617 -0.348322 82.1848
lradius 86.2899
lwrist 24.0063
lhand -23.229 14.8015
lfingers 7.12502
lthumb 3.22192 44.7569
rfemur -6.60884 -0.548128 24.7664
rtibia 75.5472
rfoot -0.598247 0.0413204
rtoes -7.26101
lfemur -48.7242 3.0638 -24.2257
ltibia 62.2468
lfoot -16.3156 -7.2687
ltoes -12.8015
